<svg width="110" height="110" viewBox="0 0 110 110" fill="none" xmlns="http://www.w3.org/2000/svg">
<rect width="58.9487" height="58.9487" rx="29.4744" transform="matrix(1 0 0 -1 25.5259 84.4741)" fill="#00ABAE"/>
<rect x="1" y="-1" width="78.3846" height="78.3846" rx="39.1923" transform="matrix(1 0 0 -1 14.8076 93.1924)" stroke="white" stroke-opacity="0.65" stroke-width="2"/>
<rect x="1" y="-1" width="108" height="108" rx="54" transform="matrix(1 0 0 -1 0 108)" stroke="white" stroke-opacity="0.17" stroke-width="2"/>
<path d="M50.4982 55.0425L50.4982 63.8572C50.4982 65.5313 52.7753 66.3697 54.1071 65.186L64.0236 56.3712C64.8492 55.6374 64.8492 54.4476 64.0236 53.7138L54.1071 44.899C52.7753 43.7152 50.4982 44.5536 50.4982 46.2277L50.4982 55.0425Z" fill="white"/>
</svg>
